<svg aria-hidden="true" style="position: absolute; width: 0; height: 0; overflow: hidden;" version="1.1" xmlns="http://www.w3.org/2000/svg" xmlns:xlink="http://www.w3.org/1999/xlink">
<defs>
//dark theme
<symbol id="icon-logo" viewBox="0 0 32 32">
<path fill="#1f1f1f" style="fill: var(--color1, #1f1f1f)" d="M24 0h-16c-4.418 0-8 3.582-8 8v0 16c0 4.418 3.582 8 8 8v0h16c4.418 0 8-3.582 8-8v0-16c0-4.418-3.582-8-8-8v0z"></path>
<path fill="#fff" style="fill: var(--color2, #fff)" d="M13.331 23.027c0.245-1.272 0.453-2.61 0.747-3.949 0.145-0.7-0.031-1-0.814-0.946-0.784 0.054-1.657 0.027-2.49 0-0.833-0.026-0.982-0.446-0.502-1.044 2.362-2.918 4.752-5.8 7.133-8.673 0.267-0.326 0.575-0.558 1.014-0.313 0.44 0.246 0.349 0.55 0.276 0.915-0.262 1.339-0.48 2.677-0.77 3.989-0.149 0.678 0.046 0.919 0.752 0.892 0.318-0.017 0.69-0.027 1.064-0.027s0.746 0.010 1.116 0.029l-0.052-0.002c0.403 0 0.932-0.21 1.14 0.34 0.209 0.548-0.23 0.78-0.452 1.106-1.327 1.642-2.227 2.729-3.135 3.81l0.383-0.468c-1.361 1.624-2.712 3.242-4.052 4.854-0.262 0.317-0.556 0.571-1.005 0.41-0.448-0.16-0.353-0.54-0.353-0.923z"></path>
</symbol>
<symbol id="icon-active-pop-up-dark" viewBox="0 0 32 32">
<path fill="none" stroke="#bedbb0" style="stroke: var(--color1, #bedbb0)" stroke-linejoin="round" stroke-linecap="round" stroke-miterlimit="4" stroke-width="2.6" d="M4.451 9.336c2.349-4.015 6.64-6.669 11.55-6.669 7.366 0 13.337 5.971 13.337 13.337s-5.971 13.337-13.337 13.337c-4.911 0-9.201-2.654-11.516-6.606l-0.034-0.063"></path>
<path fill="none" stroke="#bedbb0" style="stroke: var(--color1, #bedbb0)" stroke-linejoin="round" stroke-linecap="round" stroke-miterlimit="4" stroke-width="2.6" d="M16.004 21.339l5.335-5.335-5.335-5.335M2.667 16.004h18.673"></path>
</symbol>
<symbol id="icon-arrow-circle-dark" viewBox="0 0 32 32">
<path fill="none" stroke="#fff" style="stroke: var(--color2, #fff)" stroke-linejoin="round" stroke-linecap="round" stroke-miterlimit="4" stroke-width="2.6" d="M4.451 9.336c2.349-4.015 6.64-6.669 11.55-6.669 7.366 0 13.337 5.971 13.337 13.337s-5.971 13.337-13.337 13.337c-4.911 0-9.201-2.654-11.516-6.606l-0.034-0.063"></path>
<path fill="none" stroke="#fff" style="stroke: var(--color2, #fff)" stroke-linejoin="round" stroke-linecap="round" stroke-miterlimit="4" stroke-width="2.6" d="M16.004 21.339l5.335-5.335-5.335-5.335M2.667 16.004h18.673"></path>
</symbol>
<symbol id="icon-bell-dark" viewBox="0 0 32 32">
<path fill="none" stroke="#bedbb0" style="stroke: var(--color1, #bedbb0)" stroke-linejoin="round" stroke-linecap="round" stroke-miterlimit="4" stroke-width="3" d="M12.475 28.007c0.94 0.83 2.177 1.334 3.529 1.334s2.589-0.504 3.529-1.334M24.006 10.669c0-4.419-3.583-8.002-8.002-8.002s-8.002 3.583-8.002 8.002v0c0 4.121-1.040 6.944-2.201 8.81-0.98 1.574-1.47 2.361-1.452 2.581 0.020 0.244 0.072 0.336 0.268 0.48 0.176 0.132 0.974 0.132 2.569 0.132h17.634c1.596 0 2.395 0 2.571-0.13 0.196-0.146 0.248-0.24 0.268-0.48 0.018-0.22-0.472-1.008-1.452-2.583-1.16-1.866-2.201-4.687-2.201-8.81z"></path>
</symbol>
<symbol id="icon-colors-dark" viewBox="0 0 32 32">
<path fill="none" stroke="#fff" style="stroke: var(--color2, #fff)" stroke-linejoin="round" stroke-linecap="round" stroke-miterlimit="4" stroke-width="2.6667" d="M16.010 27.314c1.409 1.262 3.28 2.034 5.332 2.034 4.421 0 8.005-3.584 8.005-8.005 0-3.669-2.469-6.762-5.836-7.708l-0.056-0.014M8.566 13.621c-3.421 0.963-5.886 4.055-5.886 7.722 0 4.418 3.577 8 7.993 8.009h0.001c0.001 0 0.002 0 0.003 0 4.421 0 8.005-3.584 8.005-8.005 0-1.062-0.207-2.076-0.582-3.003l0.019 0.054M24.016 10.674c0 4.421-3.584 8.005-8.005 8.005s-8.005-3.584-8.005-8.005v0c0-4.421 3.584-8.005 8.005-8.005s8.005 3.584 8.005 8.005v0z"></path>
</symbol>
<symbol id="icon-container-dark" viewBox="0 0 32 32">
<path fill="none" stroke="#fff" style="stroke: var(--color2, #fff)" stroke-linejoin="round" stroke-linecap="round" stroke-miterlimit="4" stroke-width="2.6667" d="M27.351 9.709l-11.341 6.301M16.010 16.010l-11.341-6.301M16.010 16.010v12.675M28.018 21.425v-10.83c0-0.457 0-0.685-0.068-0.889-0.063-0.188-0.16-0.351-0.285-0.487l0.001 0.001c-0.146-0.158-0.347-0.269-0.747-0.491l-9.873-5.484c-0.377-0.21-0.566-0.317-0.765-0.356-0.081-0.018-0.174-0.027-0.27-0.027s-0.188 0.010-0.278 0.029l0.009-0.002c-0.201 0.039-0.391 0.146-0.768 0.356l-9.873 5.484c-0.398 0.222-0.599 0.333-0.745 0.491-0.124 0.135-0.222 0.297-0.282 0.476l-0.003 0.009c-0.068 0.205-0.068 0.432-0.068 0.889v10.83c0 0.457 0 0.685 0.068 0.889 0.063 0.189 0.16 0.351 0.285 0.487l-0.001-0.001c0.146 0.158 0.347 0.269 0.747 0.491l9.873 5.484c0.377 0.21 0.566 0.315 0.765 0.356 0.178 0.037 0.361 0.037 0.539 0 0.201-0.041 0.391-0.146 0.768-0.356l9.873-5.484c0.398-0.222 0.599-0.333 0.745-0.491 0.124-0.135 0.222-0.297 0.282-0.476l0.003-0.009c0.068-0.205 0.068-0.432 0.068-0.889z"></path>
</symbol>
<symbol id="icon-filter-dark" viewBox="0 0 32 32">
<path fill="none" stroke="#fff" style="stroke: var(--color2, #fff)" stroke-linejoin="round" stroke-linecap="round" stroke-miterlimit="4" stroke-width="3" d="M29.341 4.001h-26.674l10.671 12.617v8.722l5.335 2.667v-11.389l10.669-12.617z"></path>
</symbol>
<symbol id="icon-hexagon-dark" viewBox="0 0 32 32">
<path fill="none" stroke="#fff" style="stroke: var(--color2, #fff)" stroke-linejoin="round" stroke-linecap="round" stroke-miterlimit="4" stroke-width="2.6667" d="M14.973 3.245c0.379-0.21 0.569-0.317 0.768-0.356 0.081-0.017 0.174-0.027 0.269-0.027s0.188 0.010 0.277 0.029l-0.009-0.002c0.201 0.039 0.391 0.146 0.768 0.356l9.873 5.484c0.398 0.222 0.599 0.333 0.745 0.491 0.124 0.135 0.222 0.297 0.282 0.476l0.003 0.009c0.068 0.205 0.068 0.432 0.068 0.889v10.83c0 0.457 0 0.685-0.068 0.889-0.063 0.189-0.16 0.351-0.285 0.487l0.001-0.001c-0.146 0.158-0.347 0.269-0.747 0.491l-9.873 5.484c-0.377 0.21-0.566 0.315-0.765 0.356-0.081 0.017-0.174 0.027-0.27 0.027s-0.188-0.010-0.278-0.029l0.009 0.002c-0.201-0.041-0.391-0.146-0.768-0.356l-9.873-5.484c-0.398-0.222-0.599-0.333-0.745-0.491-0.124-0.135-0.222-0.297-0.282-0.476l-0.003-0.009c-0.068-0.205-0.068-0.432-0.068-0.889v-10.83c0-0.457 0-0.685 0.068-0.889 0.063-0.188 0.16-0.351 0.285-0.487l-0.001 0.001c0.146-0.158 0.347-0.269 0.747-0.491l9.873-5.484z"></path>
</symbol>
<symbol id="icon-lightning-dark" viewBox="0 0 32 32">
<path fill="none" stroke="#fff" style="stroke: var(--color2, #fff)" stroke-linejoin="round" stroke-linecap="round" stroke-miterlimit="4" stroke-width="2.6667" d="M19.012 2.668h-7.68c-0.238 0-0.358 0-0.463 0.036-0.098 0.034-0.182 0.087-0.251 0.155l0-0c-0.080 0.078-0.133 0.185-0.24 0.4l-5.604 11.207c-0.256 0.511-0.384 0.767-0.354 0.975 0.029 0.186 0.131 0.345 0.275 0.447l0.002 0.001c0.173 0.121 0.461 0.121 1.032 0.121h8.279l-4.003 13.342 16.268-16.871c0.548-0.569 0.822-0.854 0.838-1.096 0.001-0.013 0.001-0.028 0.001-0.044 0-0.204-0.091-0.386-0.235-0.509l-0.001-0.001c-0.187-0.158-0.582-0.158-1.372-0.158h-9.496l3.001-8.005z"></path>
</symbol>
<symbol id="icon-loading-dark" viewBox="0 0 32 32">
<path fill="none" stroke="#fff" style="stroke: var(--color2, #fff)" stroke-linejoin="round" stroke-linecap="round" stroke-miterlimit="4" stroke-width="2.6667" d="M4.456 22.681c-0.537-0.914-0.854-2.012-0.854-3.185 0-2.185 1.1-4.112 2.776-5.259l0.022-0.014 0.004-0.004c1-0.684 2.237-1.092 3.568-1.092 1.409 0 2.711 0.457 3.766 1.231l-0.018-0.012 4.579 3.33c1.037 0.761 2.339 1.218 3.747 1.218 1.332 0 2.569-0.409 3.591-1.107l-0.022 0.014 0.004-0.002c1.699-1.16 2.799-3.088 2.799-5.273 0-1.173-0.317-2.272-0.871-3.216l0.016 0.030M22.685 27.565c-0.913 0.536-2.011 0.853-3.183 0.853-2.186 0-4.114-1.101-5.261-2.779l-0.014-0.022-0.004-0.004c-0.685-1.001-1.093-2.237-1.093-3.57 0-1.408 0.457-2.71 1.23-3.765l-0.012 0.018 3.33-4.579c0.762-1.037 1.219-2.34 1.219-3.748 0-1.332-0.408-2.568-1.107-3.59l0.014 0.022-0.005-0.002c-1.161-1.697-3.089-2.797-5.273-2.797-1.173 0-2.272 0.317-3.216 0.871l0.030-0.016M25.444 6.577c2.414 2.414 3.907 5.75 3.907 9.434s-1.493 7.019-3.907 9.434l0-0c-2.414 2.414-5.75 3.907-9.434 3.907s-7.019-1.493-9.434-3.907l0 0c-2.414-2.414-3.907-5.75-3.907-9.434s1.493-7.019 3.907-9.434l-0 0c2.414-2.414 5.75-3.907 9.434-3.907s7.019 1.493 9.434 3.907l-0-0z"></path>
</symbol>
<symbol id="icon-login-active-dark" viewBox="0 0 32 32">
<path fill="none" stroke="#bedbb0" style="stroke: var(--color1, #bedbb0)" stroke-linejoin="round" stroke-linecap="round" stroke-miterlimit="4" stroke-width="1.5" d="M11.87 10.082c0.413-4.801 2.881-6.762 8.282-6.762h0.173c5.961 0 8.349 2.388 8.349 8.349v8.695c0 5.961-2.388 8.349-8.349 8.349h-0.173c-5.361 0-7.829-1.934-8.269-6.656M2.668 16.004h17.177"></path>
<path fill="none" stroke="#bedbb0" style="stroke: var(--color1, #bedbb0)" stroke-linejoin="round" stroke-linecap="round" stroke-miterlimit="4" stroke-width="1.5" d="M16.871 11.536l4.467 4.468-4.467 4.468"></path>
</symbol>
<symbol id="icon-login-normal-dark" viewBox="0 0 32 32">
<path fill="none" stroke="#9dc888" style="stroke: var(--color3, #9dc888)" stroke-linejoin="round" stroke-linecap="round" stroke-miterlimit="4" stroke-width="1.5" d="M11.87 10.082c0.413-4.801 2.881-6.762 8.282-6.762h0.173c5.961 0 8.349 2.388 8.349 8.349v8.695c0 5.961-2.388 8.349-8.349 8.349h-0.173c-5.361 0-7.829-1.934-8.269-6.656M2.668 16.004h17.177"></path>
<path fill="none" stroke="#9dc888" style="stroke: var(--color3, #9dc888)" stroke-linejoin="round" stroke-linecap="round" stroke-miterlimit="4" stroke-width="1.5" d="M16.871 11.536l4.467 4.468-4.467 4.468"></path>
</symbol>
<symbol id="icon-normal-pop-up-dark" viewBox="0 0 32 32">
<path fill="none" stroke="#fff" style="stroke: var(--color2, #fff)" stroke-linejoin="round" stroke-linecap="round" stroke-miterlimit="4" stroke-width="2.6" d="M4.451 9.336c2.349-4.015 6.64-6.669 11.55-6.669 7.366 0 13.337 5.971 13.337 13.337s-5.971 13.337-13.337 13.337c-4.911 0-9.201-2.654-11.516-6.606l-0.034-0.063"></path>
<path fill="none" stroke="#fff" style="stroke: var(--color2, #fff)" stroke-linejoin="round" stroke-linecap="round" stroke-miterlimit="4" stroke-width="2.6" d="M16.004 21.339l5.335-5.335-5.335-5.335M2.667 16.004h18.673"></path>
</symbol>
<symbol id="icon-pencil-dark" viewBox="0 0 32 32">
<path fill="none" stroke="#fff" style="stroke: var(--color2, #fff)" stroke-linejoin="round" stroke-linecap="round" stroke-miterlimit="4" stroke-width="2.6" d="M3.335 28.673l7.4-2.845c0.474-0.182 0.71-0.274 0.932-0.392 0.196-0.106 0.384-0.228 0.56-0.366 0.2-0.154 0.378-0.332 0.736-0.69l15.044-15.044c0.663-0.679 1.072-1.609 1.072-2.634 0-2.084-1.689-3.773-3.773-3.773-1.025 0-1.955 0.409-2.635 1.073l-15.043 15.043c-0.358 0.36-0.538 0.538-0.692 0.736-0.136 0.176-0.258 0.364-0.364 0.56-0.12 0.22-0.21 0.46-0.392 0.932l-2.845 7.402zM3.335 28.673l2.745-7.136c0.196-0.51 0.294-0.766 0.462-0.882 0.106-0.075 0.239-0.12 0.381-0.12 0.044 0 0.087 0.004 0.129 0.012l-0.004-0.001c0.2 0.040 0.394 0.232 0.78 0.62l3.015 3.011c0.386 0.388 0.58 0.58 0.618 0.782 0.008 0.038 0.012 0.081 0.012 0.125 0 0.143-0.045 0.275-0.121 0.383l0.001-0.002c-0.116 0.168-0.372 0.266-0.882 0.462l-7.136 2.745z"></path>
</symbol>
<symbol id="icon-plus-avatar-dark" viewBox="0 0 32 32">
<path stroke-linejoin="round" stroke-linecap="round" stroke-miterlimit="4" stroke-width="3.2" d="M16 6.666v18.669M6.666 16h18.669"></path>
</symbol>
<symbol id="icon-plus-create-dark" viewBox="0 0 32 32">
<path fill="none" stroke="#fff" style="stroke: var(--color2, #fff)" stroke-linejoin="round" stroke-linecap="round" stroke-miterlimit="4" stroke-width="2.2857" d="M16.018 6.675v18.686M6.675 16.018h18.686"></path>
</symbol>
<symbol id="icon-project-dark" viewBox="0 0 32 32">
<path fill="none" stroke="#fff" style="stroke: var(--color2, #fff)" stroke-linejoin="miter" stroke-linecap="butt" stroke-miterlimit="4" stroke-width="2.6667" d="M4.399 6.982c0.309-1.283 1.3-2.274 2.559-2.578l0.024-0.005c0.508-0.124 1.091-0.196 1.69-0.196s1.182 0.071 1.74 0.206l-0.050-0.010c1.283 0.309 2.274 1.3 2.578 2.559l0.005 0.024c0.124 0.508 0.196 1.091 0.196 1.69s-0.071 1.182-0.206 1.74l0.010-0.050c-0.309 1.283-1.3 2.274-2.559 2.578l-0.024 0.005c-0.508 0.124-1.091 0.196-1.69 0.196s-1.182-0.071-1.74-0.206l0.050 0.010c-1.283-0.309-2.274-1.3-2.578-2.559l-0.005-0.024c-0.124-0.508-0.196-1.091-0.196-1.69s0.071-1.182 0.206-1.74l-0.010 0.050zM4.399 21.659c0.309-1.283 1.3-2.274 2.559-2.578l0.024-0.005c0.508-0.124 1.091-0.196 1.69-0.196s1.182 0.071 1.74 0.206l-0.050-0.010c1.283 0.309 2.274 1.3 2.578 2.559l0.005 0.024c0.124 0.508 0.196 1.090 0.196 1.69s-0.071 1.182-0.206 1.74l0.010-0.050c-0.309 1.283-1.3 2.274-2.559 2.578l-0.024 0.005c-0.508 0.124-1.091 0.196-1.69 0.196s-1.182-0.071-1.74-0.206l0.050 0.010c-1.283-0.309-2.274-1.3-2.578-2.559l-0.005-0.024c-0.124-0.508-0.196-1.090-0.196-1.69s0.071-1.182 0.206-1.74l-0.010 0.050zM19.076 6.982c0.309-1.283 1.3-2.274 2.559-2.578l0.024-0.005c0.508-0.124 1.090-0.196 1.69-0.196s1.182 0.071 1.74 0.206l-0.050-0.010c1.283 0.309 2.274 1.3 2.578 2.559l0.005 0.024c0.124 0.508 0.196 1.091 0.196 1.69s-0.071 1.182-0.206 1.74l0.010-0.050c-0.309 1.283-1.3 2.274-2.559 2.578l-0.024 0.005c-0.508 0.124-1.090 0.196-1.69 0.196s-1.182-0.071-1.74-0.206l0.050 0.010c-1.283-0.309-2.274-1.3-2.578-2.559l-0.005-0.024c-0.124-0.508-0.196-1.091-0.196-1.69s0.071-1.182 0.206-1.74l-0.010 0.050zM19.076 21.659c0.309-1.283 1.3-2.274 2.559-2.578l0.024-0.005c0.508-0.124 1.090-0.196 1.69-0.196s1.182 0.071 1.74 0.206l-0.050-0.010c1.281 0.301 2.282 1.302 2.583 2.583 0.124 0.508 0.196 1.090 0.196 1.69s-0.071 1.182-0.206 1.74l0.010-0.050c-0.309 1.283-1.3 2.274-2.559 2.578l-0.024 0.005c-0.508 0.124-1.090 0.196-1.69 0.196s-1.182-0.071-1.74-0.206l0.050 0.010c-1.283-0.309-2.274-1.3-2.578-2.559l-0.005-0.024c-0.124-0.508-0.196-1.090-0.196-1.69s0.071-1.182 0.206-1.74l-0.010 0.050z"></path>
</symbol>
<symbol id="icon-puzzle-piece-dark" viewBox="0 0 32 32">
<path fill="none" stroke="#fff" style="stroke: var(--color2, #fff)" stroke-linejoin="round" stroke-linecap="round" stroke-miterlimit="4" stroke-width="2.6667" d="M16.010 2.668l4.803 4.803c3.202-8.405 12.141 0.534 3.736 3.736l4.803 4.803-4.803 4.803c-3.202-8.405-12.141 0.534-3.736 3.736l-4.803 4.803-4.803-4.803c-3.202 8.405-12.141-0.534-3.736-3.736l-4.803-4.803 4.803-4.803c3.202 8.405 12.141-0.534 3.736-3.736l4.803-4.803z"></path>
</symbol>
<symbol id="icon-star-dark" viewBox="0 0 32 32">
<path fill="none" stroke="#fff" style="stroke: var(--color2, #fff)" stroke-linejoin="round" stroke-linecap="round" stroke-miterlimit="4" stroke-width="2.6667" d="M16.010 2.668l2.684 6.979c0.375 0.978 0.564 1.468 0.857 1.879 0.258 0.365 0.578 0.685 0.943 0.943 0.409 0.294 0.9 0.48 1.879 0.857l6.979 2.684-6.979 2.684c-0.978 0.375-1.468 0.564-1.879 0.857-0.368 0.263-0.68 0.575-0.935 0.931l-0.008 0.012c-0.294 0.409-0.48 0.9-0.857 1.879l-2.684 6.979-2.684-6.979c-0.375-0.978-0.564-1.468-0.857-1.879-0.263-0.368-0.575-0.68-0.931-0.935l-0.012-0.008c-0.409-0.294-0.9-0.48-1.879-0.857l-6.979-2.684 6.979-2.684c0.978-0.375 1.468-0.564 1.879-0.857 0.367-0.263 0.68-0.575 0.935-0.931l0.008-0.012c0.294-0.409 0.48-0.9 0.857-1.879l2.684-6.979z"></path>
</symbol>
<symbol id="icon-trash-dark" viewBox="0 0 32 32">
<path fill="none" stroke="#fff" style="stroke: var(--color2, #fff)" stroke-linejoin="round" stroke-linecap="round" stroke-miterlimit="4" stroke-width="2.6" d="M12.003 4.001h8.002M4.001 8.002h24.006M6.668 8.002l0.802 12.021c0.148 2.231 0.224 3.347 0.588 4.243 0.673 1.626 1.993 2.869 3.631 3.424l0.042 0.012c0.918 0.304 2.037 0.304 4.273 0.304v0c2.237 0 3.355 0 4.275-0.304 1.679-0.568 2.998-1.811 3.656-3.397l0.015-0.040c0.366-0.896 0.44-2.012 0.588-4.243l0.8-12.021"></path>
</symbol>
//light theme
<symbol id="icon-active-pop-up-light" viewBox="0 0 32 32">
<path fill="none" stroke="#bedbb0" style="stroke: var(--color1, #bedbb0)" stroke-linejoin="round" stroke-linecap="round" stroke-miterlimit="4" stroke-width="2.6" d="M4.451 9.336c2.349-4.015 6.64-6.669 11.55-6.669 7.366 0 13.337 5.971 13.337 13.337s-5.971 13.337-13.337 13.337c-4.911 0-9.201-2.654-11.516-6.606l-0.034-0.063"></path>
<path fill="none" stroke="#bedbb0" style="stroke: var(--color1, #bedbb0)" stroke-linejoin="round" stroke-linecap="round" stroke-miterlimit="4" stroke-width="2.6" d="M16.004 21.339l5.335-5.335-5.335-5.335M2.667 16.004h18.673"></path>
</symbol>
<symbol id="icon-arrow-circle-light" viewBox="0 0 32 32">
<path stroke-linejoin="round" stroke-linecap="round" stroke-miterlimit="4" stroke-width="2.6" d="M4.451 9.336c2.349-4.015 6.64-6.669 11.55-6.669 7.366 0 13.337 5.971 13.337 13.337s-5.971 13.337-13.337 13.337c-4.911 0-9.201-2.654-11.516-6.606l-0.034-0.063"></path>
<path stroke-linejoin="round" stroke-linecap="round" stroke-miterlimit="4" stroke-width="2.6" d="M16.004 21.339l5.335-5.335-5.335-5.335M2.667 16.004h18.673"></path>
</symbol>
<symbol id="icon-bell-light" viewBox="0 0 32 32">
<path fill="none" stroke="#bedbb0" style="stroke: var(--color1, #bedbb0)" stroke-linejoin="round" stroke-linecap="round" stroke-miterlimit="4" stroke-width="3" d="M12.475 28.007c0.94 0.83 2.177 1.334 3.529 1.334s2.589-0.504 3.529-1.334M24.006 10.669c0-4.419-3.583-8.002-8.002-8.002s-8.002 3.583-8.002 8.002v0c0 4.121-1.040 6.944-2.201 8.81-0.98 1.574-1.47 2.361-1.452 2.581 0.020 0.244 0.072 0.336 0.268 0.48 0.176 0.132 0.974 0.132 2.569 0.132h17.634c1.596 0 2.395 0 2.571-0.13 0.196-0.146 0.248-0.24 0.268-0.48 0.018-0.22-0.472-1.008-1.452-2.583-1.16-1.866-2.201-4.689-2.201-8.81z"></path>
</symbol>
<symbol id="icon-colors-light" viewBox="0 0 32 32">
<path stroke-linejoin="round" stroke-linecap="round" stroke-miterlimit="4" stroke-width="2.6667" d="M16.010 27.314c1.409 1.262 3.28 2.034 5.332 2.034 4.421 0 8.005-3.584 8.005-8.005 0-3.669-2.469-6.762-5.836-7.708l-0.056-0.014M8.566 13.621c-3.421 0.963-5.886 4.055-5.886 7.722 0 4.418 3.577 8 7.993 8.009h0.001c0.001 0 0.002 0 0.003 0 4.421 0 8.005-3.584 8.005-8.005 0-1.062-0.207-2.076-0.582-3.003l0.019 0.054M24.016 10.674c0 4.421-3.584 8.005-8.005 8.005s-8.005-3.584-8.005-8.005v0c0-4.421 3.584-8.005 8.005-8.005s8.005 3.584 8.005 8.005v0z"></path>
</symbol>
<symbol id="icon-container-light" viewBox="0 0 32 32">
<path stroke-linejoin="round" stroke-linecap="round" stroke-miterlimit="4" stroke-width="2.6667" d="M27.351 9.709l-11.341 6.301M16.010 16.010l-11.341-6.301M16.010 16.010v12.675M28.018 21.425v-10.83c0-0.457 0-0.685-0.068-0.889-0.063-0.188-0.16-0.351-0.285-0.487l0.001 0.001c-0.146-0.158-0.347-0.269-0.747-0.491l-9.873-5.484c-0.377-0.21-0.566-0.315-0.765-0.356-0.081-0.018-0.174-0.027-0.27-0.027s-0.188 0.010-0.278 0.029l0.009-0.002c-0.201 0.041-0.391 0.146-0.768 0.356l-9.873 5.484c-0.398 0.222-0.599 0.333-0.745 0.491-0.124 0.135-0.222 0.297-0.282 0.476l-0.003 0.009c-0.068 0.205-0.068 0.432-0.068 0.889v10.83c0 0.457 0 0.685 0.068 0.889 0.063 0.189 0.16 0.351 0.285 0.487l-0.001-0.001c0.146 0.158 0.347 0.269 0.747 0.491l9.873 5.484c0.377 0.21 0.566 0.317 0.765 0.356 0.178 0.037 0.361 0.037 0.539 0 0.201-0.041 0.391-0.146 0.768-0.356l9.873-5.484c0.398-0.222 0.599-0.333 0.745-0.491 0.124-0.135 0.222-0.297 0.282-0.476l0.003-0.009c0.068-0.205 0.068-0.432 0.068-0.889z"></path>
</symbol>
<symbol id="icon-filter-light" viewBox="0 0 32 32">
<path stroke-linejoin="round" stroke-linecap="round" stroke-miterlimit="4" stroke-width="3" d="M29.341 4.001h-26.674l10.671 12.617v8.722l5.335 2.667v-11.389l10.669-12.617z"></path>
</symbol>
<symbol id="icon-hexagon-light" viewBox="0 0 32 32">
<path stroke-linejoin="round" stroke-linecap="round" stroke-miterlimit="4" stroke-width="2.6667" d="M14.973 3.245c0.379-0.21 0.569-0.315 0.768-0.356 0.081-0.017 0.174-0.027 0.269-0.027s0.188 0.010 0.277 0.029l-0.009-0.002c0.201 0.041 0.391 0.146 0.768 0.356l9.873 5.484c0.398 0.222 0.599 0.333 0.745 0.491 0.124 0.135 0.222 0.297 0.282 0.476l0.003 0.009c0.068 0.205 0.068 0.432 0.068 0.889v10.83c0 0.457 0 0.685-0.068 0.889-0.063 0.189-0.16 0.351-0.285 0.487l0.001-0.001c-0.146 0.158-0.347 0.269-0.747 0.491l-9.873 5.484c-0.377 0.21-0.566 0.317-0.765 0.356-0.081 0.017-0.174 0.027-0.27 0.027s-0.188-0.010-0.278-0.029l0.009 0.002c-0.201-0.041-0.391-0.146-0.768-0.356l-9.873-5.484c-0.398-0.222-0.599-0.333-0.745-0.491-0.124-0.135-0.222-0.297-0.282-0.476l-0.003-0.009c-0.068-0.205-0.068-0.432-0.068-0.889v-10.83c0-0.457 0-0.685 0.068-0.889 0.063-0.188 0.16-0.351 0.285-0.487l-0.001 0.001c0.146-0.158 0.347-0.269 0.747-0.491l9.873-5.484z"></path>
</symbol>
<symbol id="icon-lightning-light" viewBox="0 0 32 32">
<path stroke-linejoin="round" stroke-linecap="round" stroke-miterlimit="4" stroke-width="2.6667" d="M19.012 2.668h-7.68c-0.238 0-0.358 0-0.463 0.036-0.098 0.034-0.182 0.087-0.251 0.155l0-0c-0.080 0.078-0.133 0.185-0.24 0.4l-5.604 11.207c-0.256 0.511-0.384 0.767-0.354 0.975 0.029 0.186 0.131 0.345 0.275 0.447l0.002 0.001c0.173 0.121 0.461 0.121 1.032 0.121h8.279l-4.003 13.342 16.268-16.871c0.548-0.569 0.822-0.854 0.838-1.096 0.001-0.013 0.001-0.028 0.001-0.044 0-0.204-0.091-0.386-0.235-0.509l-0.001-0.001c-0.187-0.158-0.582-0.158-1.372-0.158h-9.496l3.001-8.005z"></path>
</symbol>
<symbol id="icon-loading-light" viewBox="0 0 32 32">
<path stroke-linejoin="round" stroke-linecap="round" stroke-miterlimit="4" stroke-width="2.6667" d="M4.456 22.681c-0.537-0.914-0.854-2.012-0.854-3.185 0-2.185 1.1-4.112 2.776-5.259l0.022-0.014 0.004-0.004c1-0.684 2.237-1.092 3.568-1.092 1.409 0 2.711 0.457 3.766 1.231l-0.018-0.012 4.579 3.33c1.037 0.761 2.339 1.218 3.747 1.218 1.332 0 2.569-0.409 3.591-1.107l-0.022 0.014 0.004-0.002c1.699-1.16 2.799-3.088 2.799-5.273 0-1.173-0.317-2.272-0.871-3.216l0.016 0.030M22.685 27.565c-0.913 0.536-2.011 0.853-3.183 0.853-2.186 0-4.114-1.101-5.261-2.779l-0.014-0.022-0.004-0.004c-0.685-1.001-1.093-2.237-1.093-3.57 0-1.408 0.457-2.71 1.23-3.765l-0.012 0.018 3.33-4.579c0.762-1.037 1.219-2.34 1.219-3.748 0-1.332-0.408-2.568-1.107-3.59l0.014 0.022-0.005-0.002c-1.161-1.697-3.089-2.797-5.273-2.797-1.173 0-2.272 0.317-3.216 0.871l0.030-0.016M25.444 6.577c2.414 2.414 3.907 5.75 3.907 9.434s-1.493 7.019-3.907 9.434l0-0c-2.414 2.414-5.75 3.907-9.434 3.907s-7.019-1.493-9.434-3.907l0 0c-2.414-2.414-3.907-5.75-3.907-9.434s1.493-7.019 3.907-9.434l-0 0c2.414-2.414 5.75-3.907 9.434-3.907s7.019 1.493 9.434 3.907l-0-0z"></path>
</symbol>
<symbol id="icon-login-active-light" viewBox="0 0 32 32">
<path fill="none" stroke="#bedbb0" style="stroke: var(--color1, #bedbb0)" stroke-linejoin="round" stroke-linecap="round" stroke-miterlimit="4" stroke-width="1.5" d="M11.87 10.082c0.413-4.801 2.881-6.762 8.282-6.762h0.173c5.961 0 8.349 2.388 8.349 8.349v8.695c0 5.961-2.388 8.349-8.349 8.349h-0.173c-5.361 0-7.829-1.934-8.269-6.656M2.668 16.004h17.177"></path>
<path fill="none" stroke="#bedbb0" style="stroke: var(--color1, #bedbb0)" stroke-linejoin="round" stroke-linecap="round" stroke-miterlimit="4" stroke-width="1.5" d="M16.871 11.536l4.467 4.468-4.467 4.468"></path>
</symbol>
<symbol id="icon-login-normal-light" viewBox="0 0 32 32">
<path fill="none" stroke="#9dc888" style="stroke: var(--color2, #9dc888)" stroke-linejoin="round" stroke-linecap="round" stroke-miterlimit="4" stroke-width="1.5" d="M11.87 10.082c0.413-4.801 2.881-6.762 8.282-6.762h0.173c5.961 0 8.349 2.388 8.349 8.349v8.695c0 5.961-2.388 8.349-8.349 8.349h-0.173c-5.361 0-7.829-1.934-8.269-6.656M2.668 16.004h17.177"></path>
<path fill="none" stroke="#9dc888" style="stroke: var(--color2, #9dc888)" stroke-linejoin="round" stroke-linecap="round" stroke-miterlimit="4" stroke-width="1.5" d="M16.871 11.536l4.467 4.468-4.467 4.468"></path>
</symbol>
<symbol id="icon-normal-pop-up-light" viewBox="0 0 32 32">
<path stroke-linejoin="round" stroke-linecap="round" stroke-miterlimit="4" stroke-width="2.6" d="M4.451 9.336c2.349-4.015 6.64-6.669 11.55-6.669 7.366 0 13.337 5.971 13.337 13.337s-5.971 13.337-13.337 13.337c-4.911 0-9.201-2.654-11.516-6.606l-0.034-0.063"></path>
<path stroke-linejoin="round" stroke-linecap="round" stroke-miterlimit="4" stroke-width="2.6" d="M16.004 21.339l5.335-5.335-5.335-5.335M2.667 16.004h18.673"></path>
</symbol>
<symbol id="icon-pencil-light" viewBox="0 0 32 32">
<path stroke-linejoin="round" stroke-linecap="round" stroke-miterlimit="4" stroke-width="2.6" d="M3.335 28.673l7.4-2.847c0.474-0.18 0.71-0.272 0.932-0.392 0.196-0.104 0.384-0.226 0.56-0.364 0.2-0.154 0.378-0.332 0.736-0.69l15.044-15.044c0.663-0.679 1.072-1.609 1.072-2.634 0-2.084-1.689-3.773-3.773-3.773-1.025 0-1.955 0.409-2.635 1.073l-15.043 15.043c-0.244 0.23-0.47 0.47-0.681 0.723l-0.011 0.013c-0.136 0.176-0.258 0.364-0.364 0.56-0.12 0.22-0.21 0.46-0.392 0.932l-2.845 7.402zM3.335 28.673l2.745-7.136c0.196-0.51 0.294-0.766 0.462-0.882 0.106-0.075 0.239-0.12 0.381-0.12 0.044 0 0.087 0.004 0.129 0.012l-0.004-0.001c0.2 0.040 0.394 0.232 0.78 0.62l3.015 3.011c0.386 0.388 0.58 0.58 0.618 0.782 0.007 0.037 0.012 0.080 0.012 0.124 0 0.143-0.045 0.275-0.121 0.384l0.001-0.002c-0.116 0.168-0.372 0.266-0.882 0.462l-7.136 2.745z"></path>
</symbol>
<symbol id="icon-plus-avatar-light" viewBox="0 0 32 32">
<path stroke-linejoin="round" stroke-linecap="round" stroke-miterlimit="4" stroke-width="3.2" d="M16 6.666v18.669M6.666 16h18.669"></path>
</symbol>
<symbol id="icon-plus-black-light" viewBox="0 0 32 32">
<path stroke-linejoin="round" stroke-linecap="round" stroke-miterlimit="4" stroke-width="2.88" d="M16 6.667v18.666M6.667 16h18.666"></path>
</symbol>
<symbol id="icon-plus-white-create-light" viewBox="0 0 32 32">
<path fill="none" stroke="#fff" style="stroke: var(--color3, #fff)" stroke-linejoin="round" stroke-linecap="round" stroke-miterlimit="4" stroke-width="2.2857" d="M16.018 6.675v18.686M6.675 16.018h18.686"></path>
</symbol>
<symbol id="icon-project-light" viewBox="0 0 32 32">
<path stroke-linejoin="miter" stroke-linecap="butt" stroke-miterlimit="4" stroke-width="2.6667" d="M4.399 6.982c0.309-1.283 1.3-2.274 2.559-2.578l0.024-0.005c0.508-0.124 1.091-0.196 1.69-0.196s1.182 0.071 1.74 0.206l-0.050-0.010c1.283 0.309 2.274 1.3 2.578 2.559l0.005 0.024c0.124 0.508 0.196 1.091 0.196 1.69s-0.071 1.182-0.206 1.74l0.010-0.050c-0.309 1.283-1.3 2.274-2.559 2.578l-0.024 0.005c-0.508 0.124-1.091 0.196-1.69 0.196s-1.182-0.071-1.74-0.206l0.050 0.010c-1.283-0.309-2.274-1.3-2.578-2.559l-0.005-0.024c-0.124-0.508-0.196-1.091-0.196-1.69s0.071-1.182 0.206-1.74l-0.010 0.050zM4.399 21.659c0.309-1.283 1.3-2.274 2.559-2.578l0.024-0.005c0.508-0.124 1.091-0.196 1.69-0.196s1.182 0.071 1.74 0.206l-0.050-0.010c1.283 0.309 2.274 1.3 2.578 2.559l0.005 0.024c0.124 0.508 0.196 1.090 0.196 1.69s-0.071 1.182-0.206 1.74l0.010-0.050c-0.309 1.283-1.3 2.274-2.559 2.578l-0.024 0.005c-0.508 0.124-1.091 0.196-1.69 0.196s-1.182-0.071-1.74-0.206l0.050 0.010c-1.283-0.309-2.274-1.3-2.578-2.559l-0.005-0.024c-0.124-0.508-0.196-1.090-0.196-1.69s0.071-1.182 0.206-1.74l-0.010 0.050zM19.076 6.982c0.309-1.283 1.3-2.274 2.559-2.578l0.024-0.005c0.508-0.124 1.090-0.196 1.69-0.196s1.182 0.071 1.74 0.206l-0.050-0.010c1.283 0.309 2.274 1.3 2.578 2.559l0.005 0.024c0.124 0.508 0.196 1.091 0.196 1.69s-0.071 1.182-0.206 1.74l0.010-0.050c-0.309 1.283-1.3 2.274-2.559 2.578l-0.024 0.005c-0.508 0.124-1.090 0.196-1.69 0.196s-1.182-0.071-1.74-0.206l0.050 0.010c-1.283-0.309-2.274-1.3-2.578-2.559l-0.005-0.024c-0.124-0.508-0.196-1.091-0.196-1.69s0.071-1.182 0.206-1.74l-0.010 0.050zM19.076 21.659c0.309-1.283 1.3-2.274 2.559-2.578l0.024-0.005c0.508-0.124 1.090-0.196 1.69-0.196s1.182 0.071 1.74 0.206l-0.050-0.010c1.281 0.301 2.282 1.302 2.583 2.583 0.124 0.508 0.196 1.090 0.196 1.69s-0.071 1.182-0.206 1.74l0.010-0.050c-0.309 1.283-1.3 2.274-2.559 2.578l-0.024 0.005c-0.508 0.124-1.090 0.196-1.69 0.196s-1.182-0.071-1.74-0.206l0.050 0.010c-1.283-0.309-2.274-1.3-2.578-2.559l-0.005-0.024c-0.124-0.508-0.196-1.090-0.196-1.69s0.071-1.182 0.206-1.74l-0.010 0.050z"></path>
</symbol>
<symbol id="icon-puzzle-piece-light" viewBox="0 0 32 32">
<path stroke-linejoin="round" stroke-linecap="round" stroke-miterlimit="4" stroke-width="2.6667" d="M16.010 2.668l4.803 4.803c3.202-8.405 12.141 0.534 3.736 3.736l4.803 4.803-4.803 4.803c-3.202-8.405-12.141 0.534-3.736 3.736l-4.803 4.803-4.803-4.803c-3.202 8.405-12.141-0.534-3.736-3.736l-4.803-4.803 4.803-4.803c3.202 8.405 12.141-0.534 3.736-3.736l4.803-4.803z"></path>
</symbol>
<symbol id="icon-star-light" viewBox="0 0 32 32">
<path stroke-linejoin="round" stroke-linecap="round" stroke-miterlimit="4" stroke-width="2.6667" d="M16.010 2.668l2.684 6.979c0.375 0.978 0.564 1.468 0.857 1.879 0.258 0.365 0.578 0.685 0.943 0.943 0.409 0.294 0.9 0.48 1.879 0.857l6.979 2.684-6.979 2.684c-0.978 0.375-1.468 0.564-1.879 0.857-0.368 0.263-0.68 0.575-0.935 0.931l-0.008 0.012c-0.294 0.409-0.48 0.9-0.857 1.879l-2.684 6.979-2.684-6.979c-0.375-0.978-0.564-1.468-0.857-1.879-0.263-0.368-0.575-0.68-0.931-0.935l-0.012-0.008c-0.409-0.294-0.9-0.48-1.879-0.857l-6.979-2.684 6.979-2.684c0.978-0.375 1.468-0.564 1.879-0.857 0.367-0.263 0.68-0.575 0.935-0.931l0.008-0.012c0.294-0.409 0.48-0.9 0.857-1.879l2.684-6.979z"></path>
</symbol>
<symbol id="icon-trash-light" viewBox="0 0 32 32">
<path stroke-linejoin="round" stroke-linecap="round" stroke-miterlimit="4" stroke-width="2.6" d="M12.003 4.001h8.002M4.001 8.002h24.006M6.668 8.002l0.802 12.021c0.148 2.231 0.224 3.347 0.588 4.243 0.673 1.626 1.993 2.869 3.631 3.424l0.042 0.012c0.918 0.304 2.037 0.304 4.273 0.304v0c2.237 0 3.355 0 4.275-0.304 1.679-0.568 2.998-1.811 3.656-3.397l0.015-0.040c0.366-0.896 0.44-2.012 0.588-4.243l0.8-12.021"></path>
</symbol>
//violet theme
<symbol id="icon-active-pop-up-violet" viewBox="0 0 32 32">
<path fill="none" stroke="#5255bc" style="stroke: var(--color1, #5255bc)" stroke-linejoin="round" stroke-linecap="round" stroke-miterlimit="4" stroke-width="2.6" d="M4.451 9.336c2.349-4.015 6.64-6.669 11.55-6.669 7.366 0 13.337 5.971 13.337 13.337s-5.971 13.337-13.337 13.337c-4.911 0-9.201-2.654-11.516-6.606l-0.034-0.063"></path>
<path fill="none" stroke="#5255bc" style="stroke: var(--color1, #5255bc)" stroke-linejoin="round" stroke-linecap="round" stroke-miterlimit="4" stroke-width="2.6" d="M16.004 21.339l5.335-5.335-5.335-5.335M2.667 16.004h18.673"></path>
</symbol>
<symbol id="icon-arrow-circle-violet" viewBox="0 0 32 32">
<path stroke-linejoin="round" stroke-linecap="round" stroke-miterlimit="4" stroke-width="2.6" d="M4.451 9.336c2.349-4.015 6.64-6.669 11.55-6.669 7.366 0 13.337 5.971 13.337 13.337s-5.971 13.337-13.337 13.337c-4.911 0-9.201-2.654-11.516-6.606l-0.034-0.063"></path>
<path stroke-linejoin="round" stroke-linecap="round" stroke-miterlimit="4" stroke-width="2.6" d="M16.004 21.339l5.335-5.335-5.335-5.335M2.667 16.004h18.673"></path>
</symbol>
<symbol id="icon-bell-violet" viewBox="0 0 32 32">
<path fill="none" stroke="#5255bc" style="stroke: var(--color1, #5255bc)" stroke-linejoin="round" stroke-linecap="round" stroke-miterlimit="4" stroke-width="3" d="M12.475 28.007c0.94 0.83 2.177 1.334 3.529 1.334s2.589-0.504 3.529-1.334M24.006 10.669c0-4.419-3.583-8.002-8.002-8.002s-8.002 3.583-8.002 8.002v0c0 4.121-1.040 6.944-2.201 8.81-0.98 1.574-1.47 2.361-1.452 2.581 0.020 0.244 0.072 0.336 0.268 0.48 0.176 0.132 0.974 0.132 2.569 0.132h17.634c1.596 0 2.395 0 2.571-0.13 0.196-0.146 0.248-0.24 0.268-0.48 0.018-0.22-0.472-1.008-1.452-2.583-1.16-1.866-2.201-4.689-2.201-8.81z"></path>
</symbol>
<symbol id="icon-colors-violet" viewBox="0 0 32 32">
<path stroke-linejoin="round" stroke-linecap="round" stroke-miterlimit="4" stroke-width="2.6667" d="M16.010 27.314c1.409 1.262 3.28 2.034 5.332 2.034 4.421 0 8.005-3.584 8.005-8.005 0-3.669-2.469-6.762-5.836-7.708l-0.056-0.014M8.566 13.621c-3.421 0.963-5.886 4.055-5.886 7.722 0 4.418 3.577 8 7.993 8.009h0.001c0.001 0 0.002 0 0.003 0 4.421 0 8.005-3.584 8.005-8.005 0-1.062-0.207-2.076-0.582-3.003l0.019 0.054M24.016 10.674c0 4.421-3.584 8.005-8.005 8.005s-8.005-3.584-8.005-8.005v0c0-4.421 3.584-8.005 8.005-8.005s8.005 3.584 8.005 8.005v0z"></path>
</symbol>
<symbol id="icon-container-violet" viewBox="0 0 32 32">
<path stroke-linejoin="round" stroke-linecap="round" stroke-miterlimit="4" stroke-width="2.6667" d="M27.351 9.709l-11.341 6.301M16.010 16.010l-11.341-6.301M16.010 16.010v12.675M28.018 21.425v-10.83c0-0.457 0-0.685-0.068-0.889-0.063-0.188-0.16-0.351-0.285-0.487l0.001 0.001c-0.146-0.158-0.347-0.269-0.747-0.491l-9.873-5.484c-0.377-0.21-0.566-0.315-0.765-0.356-0.081-0.018-0.174-0.027-0.27-0.027s-0.188 0.010-0.278 0.029l0.009-0.002c-0.201 0.041-0.391 0.146-0.768 0.356l-9.873 5.484c-0.398 0.222-0.599 0.333-0.745 0.491-0.124 0.135-0.222 0.297-0.282 0.476l-0.003 0.009c-0.068 0.205-0.068 0.432-0.068 0.889v10.83c0 0.457 0 0.685 0.068 0.889 0.063 0.189 0.16 0.351 0.285 0.487l-0.001-0.001c0.146 0.158 0.347 0.269 0.747 0.491l9.873 5.484c0.377 0.21 0.566 0.317 0.765 0.356 0.178 0.037 0.361 0.037 0.539 0 0.201-0.041 0.391-0.146 0.768-0.356l9.873-5.484c0.398-0.222 0.599-0.333 0.745-0.491 0.124-0.135 0.222-0.297 0.282-0.476l0.003-0.009c0.068-0.205 0.068-0.432 0.068-0.889z"></path>
</symbol>
<symbol id="icon-filter-violet" viewBox="0 0 32 32">
<path stroke-linejoin="round" stroke-linecap="round" stroke-miterlimit="4" stroke-width="3" d="M29.341 4.001h-26.674l10.671 12.617v8.722l5.335 2.667v-11.389l10.669-12.617z"></path>
</symbol>
<symbol id="icon-hexagon-violet" viewBox="0 0 32 32">
<path stroke-linejoin="round" stroke-linecap="round" stroke-miterlimit="4" stroke-width="2.6667" d="M14.973 3.245c0.379-0.21 0.569-0.315 0.768-0.356 0.081-0.017 0.174-0.027 0.269-0.027s0.188 0.010 0.277 0.029l-0.009-0.002c0.201 0.041 0.391 0.146 0.768 0.356l9.873 5.484c0.398 0.222 0.599 0.333 0.745 0.491 0.124 0.135 0.222 0.297 0.282 0.476l0.003 0.009c0.068 0.205 0.068 0.432 0.068 0.889v10.83c0 0.457 0 0.685-0.068 0.889-0.063 0.189-0.16 0.351-0.285 0.487l0.001-0.001c-0.146 0.158-0.347 0.269-0.747 0.491l-9.873 5.484c-0.377 0.21-0.566 0.317-0.765 0.356-0.081 0.017-0.174 0.027-0.27 0.027s-0.188-0.010-0.278-0.029l0.009 0.002c-0.201-0.041-0.391-0.146-0.768-0.356l-9.873-5.484c-0.398-0.222-0.599-0.333-0.745-0.491-0.124-0.135-0.222-0.297-0.282-0.476l-0.003-0.009c-0.068-0.205-0.068-0.432-0.068-0.889v-10.83c0-0.457 0-0.685 0.068-0.889 0.063-0.188 0.16-0.351 0.285-0.487l-0.001 0.001c0.146-0.158 0.347-0.269 0.747-0.491l9.873-5.484z"></path>
</symbol>
<symbol id="icon-icon-logo-violet" viewBox="0 0 32 32">
<path fill="#ecedfd" style="fill: var(--color2, #ecedfd)" d="M24.006 0h-16.004c-4.419 0-8.002 3.583-8.002 8.002v0 16.004c0 4.419 3.583 8.002 8.002 8.002v0h16.004c4.419 0 8.002-3.583 8.002-8.002v0-16.004c0-4.419-3.583-8.002-8.002-8.002v0z"></path>
<path fill="#5255bc" style="fill: var(--color1, #5255bc)" d="M13.334 23.033c0.245-1.272 0.453-2.611 0.747-3.95 0.145-0.7-0.031-1-0.814-0.946-0.784 0.054-1.657 0.027-2.491 0-0.833-0.026-0.982-0.446-0.502-1.044 2.363-2.919 4.753-5.801 7.135-8.675 0.267-0.326 0.575-0.558 1.014-0.313s0.349 0.55 0.276 0.915c-0.262 1.339-0.48 2.678-0.77 3.99-0.149 0.678 0.046 0.919 0.752 0.892 0.318-0.017 0.69-0.027 1.064-0.027s0.746 0.010 1.116 0.029l-0.052-0.002c0.403 0 0.932-0.21 1.14 0.34 0.209 0.548-0.23 0.78-0.452 1.106-1.327 1.642-2.228 2.73-3.136 3.811l0.383-0.468c-1.361 1.624-2.713 3.243-4.053 4.855-0.262 0.317-0.556 0.571-1.005 0.41-0.448-0.16-0.353-0.54-0.353-0.923z"></path>
</symbol>
<symbol id="icon-lightning-violet" viewBox="0 0 32 32">
<path stroke-linejoin="round" stroke-linecap="round" stroke-miterlimit="4" stroke-width="2.6667" d="M19.012 2.668h-7.68c-0.238 0-0.358 0-0.463 0.036-0.098 0.034-0.182 0.087-0.251 0.155l0-0c-0.080 0.078-0.133 0.185-0.24 0.4l-5.604 11.207c-0.256 0.511-0.384 0.767-0.354 0.975 0.029 0.186 0.131 0.345 0.275 0.447l0.002 0.001c0.173 0.121 0.461 0.121 1.032 0.121h8.279l-4.003 13.342 16.268-16.871c0.548-0.569 0.822-0.854 0.838-1.096 0.001-0.013 0.001-0.028 0.001-0.044 0-0.204-0.091-0.386-0.235-0.509l-0.001-0.001c-0.187-0.158-0.582-0.158-1.372-0.158h-9.496l3.001-8.005z"></path>
</symbol>
<symbol id="icon-loading-violet" viewBox="0 0 32 32">
<path stroke-linejoin="round" stroke-linecap="round" stroke-miterlimit="4" stroke-width="2.6667" d="M4.456 22.681c-0.537-0.914-0.854-2.012-0.854-3.185 0-2.185 1.1-4.112 2.776-5.259l0.022-0.014 0.004-0.004c1-0.684 2.237-1.092 3.568-1.092 1.409 0 2.711 0.457 3.766 1.231l-0.018-0.012 4.579 3.33c1.037 0.761 2.339 1.218 3.747 1.218 1.332 0 2.569-0.409 3.591-1.107l-0.022 0.014 0.004-0.002c1.699-1.16 2.799-3.088 2.799-5.273 0-1.173-0.317-2.272-0.871-3.216l0.016 0.030M22.685 27.565c-0.913 0.536-2.011 0.853-3.183 0.853-2.186 0-4.114-1.101-5.261-2.779l-0.014-0.022-0.004-0.004c-0.685-1.001-1.093-2.237-1.093-3.57 0-1.408 0.457-2.71 1.23-3.765l-0.012 0.018 3.33-4.579c0.762-1.037 1.219-2.34 1.219-3.748 0-1.332-0.408-2.568-1.107-3.59l0.014 0.022-0.005-0.002c-1.161-1.697-3.089-2.797-5.273-2.797-1.173 0-2.272 0.317-3.216 0.871l0.030-0.016M25.444 6.577c2.414 2.414 3.907 5.75 3.907 9.434s-1.493 7.019-3.907 9.434l0-0c-2.414 2.414-5.75 3.907-9.434 3.907s-7.019-1.493-9.434-3.907l0 0c-2.414-2.414-3.907-5.75-3.907-9.434s1.493-7.019 3.907-9.434l-0 0c2.414-2.414 5.75-3.907 9.434-3.907s7.019 1.493 9.434 3.907l-0-0z"></path>
</symbol>
<symbol id="icon-login-active-violet" viewBox="0 0 32 32">
<path fill="none" stroke="#b8bcfd" style="stroke: var(--color3, #b8bcfd)" stroke-linejoin="round" stroke-linecap="round" stroke-miterlimit="4" stroke-width="1.5" d="M11.87 10.082c0.413-4.801 2.881-6.762 8.282-6.762h0.173c5.961 0 8.349 2.388 8.349 8.349v8.695c0 5.961-2.388 8.349-8.349 8.349h-0.173c-5.361 0-7.829-1.934-8.269-6.656M2.668 16.004h17.177"></path>
<path fill="none" stroke="#b8bcfd" style="stroke: var(--color3, #b8bcfd)" stroke-linejoin="round" stroke-linecap="round" stroke-miterlimit="4" stroke-width="1.5" d="M16.871 11.536l4.467 4.468-4.467 4.468"></path>
</symbol>
<symbol id="icon-login-normal-violet" viewBox="0 0 32 32">
<path fill="none" stroke="#fff" style="stroke: var(--color4, #fff)" stroke-linejoin="round" stroke-linecap="round" stroke-miterlimit="4" stroke-width="1.5" d="M11.87 10.082c0.413-4.801 2.881-6.762 8.282-6.762h0.173c5.961 0 8.349 2.388 8.349 8.349v8.695c0 5.961-2.388 8.349-8.349 8.349h-0.173c-5.361 0-7.829-1.934-8.269-6.656M2.668 16.004h17.177"></path>
<path fill="none" stroke="#fff" style="stroke: var(--color4, #fff)" stroke-linejoin="round" stroke-linecap="round" stroke-miterlimit="4" stroke-width="1.5" d="M16.871 11.536l4.467 4.468-4.467 4.468"></path>
</symbol>
<symbol id="icon-normal-pop-up-violet" viewBox="0 0 32 32">
<path stroke-linejoin="round" stroke-linecap="round" stroke-miterlimit="4" stroke-width="2.6" d="M4.451 9.336c2.349-4.015 6.64-6.669 11.55-6.669 7.366 0 13.337 5.971 13.337 13.337s-5.971 13.337-13.337 13.337c-4.911 0-9.201-2.654-11.516-6.606l-0.034-0.063"></path>
<path stroke-linejoin="round" stroke-linecap="round" stroke-miterlimit="4" stroke-width="2.6" d="M16.004 21.339l5.335-5.335-5.335-5.335M2.667 16.004h18.673"></path>
</symbol>
<symbol id="icon-pencil-violet" viewBox="0 0 32 32">
<path stroke-linejoin="round" stroke-linecap="round" stroke-miterlimit="4" stroke-width="2.6" d="M3.335 28.673l7.4-2.845c0.474-0.184 0.71-0.274 0.932-0.394 0.196-0.104 0.384-0.226 0.56-0.364 0.2-0.154 0.378-0.332 0.736-0.69l15.044-15.044c0.663-0.679 1.072-1.609 1.072-2.634 0-2.084-1.689-3.773-3.773-3.773-1.025 0-1.955 0.409-2.635 1.073l-15.043 15.043c-0.358 0.36-0.538 0.538-0.692 0.736-0.136 0.176-0.258 0.364-0.364 0.56-0.12 0.22-0.21 0.46-0.392 0.932l-2.845 7.402zM3.335 28.673l2.745-7.136c0.196-0.51 0.294-0.766 0.462-0.882 0.106-0.075 0.239-0.12 0.381-0.12 0.044 0 0.087 0.004 0.129 0.012l-0.004-0.001c0.2 0.040 0.394 0.232 0.78 0.62l3.015 3.011c0.386 0.388 0.58 0.58 0.618 0.782 0.008 0.038 0.012 0.081 0.012 0.125 0 0.143-0.045 0.275-0.121 0.383l0.001-0.002c-0.116 0.168-0.372 0.266-0.882 0.462l-7.136 2.745z"></path>
</symbol>
<symbol id="icon-plus-avatar-violet" viewBox="0 0 32 32">
<path stroke-linejoin="round" stroke-linecap="round" stroke-miterlimit="4" stroke-width="3.2" d="M16 6.666v18.669M6.666 16h18.669"></path>
</symbol>
<symbol id="icon-plus-create-violet" viewBox="0 0 32 32">
<path stroke-linejoin="round" stroke-linecap="round" stroke-miterlimit="4" stroke-width="2.2857" d="M16.018 6.675v18.686M6.675 16.018h18.686"></path>
</symbol>
<symbol id="icon-plus-whith-violet" viewBox="0 0 32 32">
<path fill="none" stroke="#fff" style="stroke: var(--color4, #fff)" stroke-linejoin="round" stroke-linecap="round" stroke-miterlimit="4" stroke-width="2.88" d="M16 6.667v18.666M6.667 16h18.666"></path>
</symbol>
<symbol id="icon-project-violet" viewBox="0 0 32 32">
<path stroke-linejoin="miter" stroke-linecap="butt" stroke-miterlimit="4" stroke-width="2.6667" d="M4.399 6.982c0.309-1.283 1.3-2.274 2.559-2.578l0.024-0.005c0.508-0.124 1.091-0.196 1.69-0.196s1.182 0.071 1.74 0.206l-0.050-0.010c1.283 0.309 2.274 1.3 2.578 2.559l0.005 0.024c0.124 0.508 0.196 1.091 0.196 1.69s-0.071 1.182-0.206 1.74l0.010-0.050c-0.309 1.283-1.3 2.274-2.559 2.578l-0.024 0.005c-0.508 0.124-1.091 0.196-1.69 0.196s-1.182-0.071-1.74-0.206l0.050 0.010c-1.283-0.309-2.274-1.3-2.578-2.559l-0.005-0.024c-0.124-0.508-0.196-1.091-0.196-1.69s0.071-1.182 0.206-1.74l-0.010 0.050zM4.399 21.659c0.309-1.283 1.3-2.274 2.559-2.578l0.024-0.005c0.508-0.124 1.091-0.196 1.69-0.196s1.182 0.071 1.74 0.206l-0.050-0.010c1.283 0.309 2.274 1.3 2.578 2.559l0.005 0.024c0.124 0.508 0.196 1.090 0.196 1.69s-0.071 1.182-0.206 1.74l0.010-0.050c-0.309 1.283-1.3 2.274-2.559 2.578l-0.024 0.005c-0.508 0.124-1.091 0.196-1.69 0.196s-1.182-0.071-1.74-0.206l0.050 0.010c-1.283-0.309-2.274-1.3-2.578-2.559l-0.005-0.024c-0.124-0.508-0.196-1.090-0.196-1.69s0.071-1.182 0.206-1.74l-0.010 0.050zM19.076 6.982c0.309-1.283 1.3-2.274 2.559-2.578l0.024-0.005c0.508-0.124 1.090-0.196 1.69-0.196s1.182 0.071 1.74 0.206l-0.050-0.010c1.283 0.309 2.274 1.3 2.578 2.559l0.005 0.024c0.124 0.508 0.196 1.091 0.196 1.69s-0.071 1.182-0.206 1.74l0.010-0.050c-0.309 1.283-1.3 2.274-2.559 2.578l-0.024 0.005c-0.508 0.124-1.090 0.196-1.69 0.196s-1.182-0.071-1.74-0.206l0.050 0.010c-1.283-0.309-2.274-1.3-2.578-2.559l-0.005-0.024c-0.124-0.508-0.196-1.091-0.196-1.69s0.071-1.182 0.206-1.74l-0.010 0.050zM19.076 21.659c0.309-1.283 1.3-2.274 2.559-2.578l0.024-0.005c0.508-0.124 1.090-0.196 1.69-0.196s1.182 0.071 1.74 0.206l-0.050-0.010c1.281 0.301 2.282 1.302 2.583 2.583 0.124 0.508 0.196 1.090 0.196 1.69s-0.071 1.182-0.206 1.74l0.010-0.050c-0.309 1.283-1.3 2.274-2.559 2.578l-0.024 0.005c-0.508 0.124-1.090 0.196-1.69 0.196s-1.182-0.071-1.74-0.206l0.050 0.010c-1.283-0.309-2.274-1.3-2.578-2.559l-0.005-0.024c-0.124-0.508-0.196-1.090-0.196-1.69s0.071-1.182 0.206-1.74l-0.010 0.050z"></path>
</symbol>
<symbol id="icon-puzzle-piece-violet" viewBox="0 0 32 32">
<path stroke-linejoin="round" stroke-linecap="round" stroke-miterlimit="4" stroke-width="2.6667" d="M16.010 2.668l4.803 4.803c3.202-8.405 12.141 0.534 3.736 3.736l4.803 4.803-4.803 4.803c-3.202-8.405-12.141 0.534-3.736 3.736l-4.803 4.803-4.803-4.803c-3.202 8.405-12.141-0.534-3.736-3.736l-4.803-4.803 4.803-4.803c3.202 8.405 12.141-0.534 3.736-3.736l4.803-4.803z"></path>
</symbol>
<symbol id="icon-star-violet" viewBox="0 0 32 32">
<path stroke-linejoin="round" stroke-linecap="round" stroke-miterlimit="4" stroke-width="2.6667" d="M16.010 2.668l2.684 6.979c0.375 0.978 0.564 1.468 0.857 1.879 0.258 0.365 0.578 0.685 0.943 0.943 0.409 0.294 0.9 0.48 1.879 0.857l6.979 2.684-6.979 2.684c-0.978 0.375-1.468 0.564-1.879 0.857-0.368 0.263-0.68 0.575-0.935 0.931l-0.008 0.012c-0.294 0.409-0.48 0.9-0.857 1.879l-2.684 6.979-2.684-6.979c-0.375-0.978-0.564-1.468-0.857-1.879-0.263-0.368-0.575-0.68-0.931-0.935l-0.012-0.008c-0.409-0.294-0.9-0.48-1.879-0.857l-6.979-2.684 6.979-2.684c0.978-0.375 1.468-0.564 1.879-0.857 0.367-0.263 0.68-0.575 0.935-0.931l0.008-0.012c0.294-0.409 0.48-0.9 0.857-1.879l2.684-6.979z"></path>
</symbol>
<symbol id="icon-trash-violet" viewBox="0 0 32 32">
<path stroke-linejoin="round" stroke-linecap="round" stroke-miterlimit="4" stroke-width="2.6" d="M12.003 4.001h8.002M4.001 8.002h24.006M6.668 8.002l0.802 12.021c0.148 2.231 0.224 3.347 0.588 4.243 0.673 1.626 1.993 2.869 3.631 3.424l0.042 0.012c0.918 0.304 2.037 0.304 4.273 0.304v0c2.237 0 3.355 0 4.275-0.304 1.679-0.568 2.998-1.811 3.656-3.397l0.015-0.040c0.366-0.896 0.44-2.012 0.588-4.243l0.8-12.021"></path>
</symbol>
</defs>
</svg>
